<?xml version="1.0" encoding="UTF-8" standalone="no"?>
<svg
   xmlns:dc="http://purl.org/dc/elements/1.1/"
   xmlns:cc="http://creativecommons.org/ns#"
   xmlns:rdf="http://www.w3.org/1999/02/22-rdf-syntax-ns#"
   xmlns:svg="http://www.w3.org/2000/svg"
   xmlns="http://www.w3.org/2000/svg"
   xmlns:sodipodi="http://sodipodi.sourceforge.net/DTD/sodipodi-0.dtd"
   xmlns:inkscape="http://www.inkscape.org/namespaces/inkscape"
   sodipodi:docname="landingpage.svg"
   inkscape:version="1.0 (6e3e5246a0, 2020-05-07)"
   id="svg1181"
   version="1.1"
   viewBox="0 0 135.46666 135.46667"
   height="512"
   width="512">
  <defs
     id="defs1175" />
  <sodipodi:namedview
     inkscape:window-maximized="1"
     inkscape:window-y="0"
     inkscape:window-x="1366"
     inkscape:window-height="737"
     inkscape:window-width="1366"
     units="px"
     showgrid="false"
     inkscape:document-rotation="0"
     inkscape:current-layer="layer1"
     inkscape:document-units="mm"
     inkscape:cy="-41.28267"
     inkscape:cx="877.6583"
     inkscape:zoom="0.5"
     inkscape:pageshadow="2"
     inkscape:pageopacity="0.0"
     borderopacity="1.0"
     bordercolor="#666666"
     pagecolor="#ffffff"
     id="base" />
  <metadata
     id="metadata1178">
    <rdf:RDF>
      <cc:Work
         rdf:about="">
        <dc:format>image/svg+xml</dc:format>
        <dc:type
           rdf:resource="http://purl.org/dc/dcmitype/StillImage" />
        <dc:title></dc:title>
      </cc:Work>
    </rdf:RDF>
  </metadata>
  <g
     id="layer1"
     inkscape:groupmode="layer"
     inkscape:label="Capa 1">
    <path
       transform="scale(0.26458333)"
       id="path1279"
       d="M 30.417308,423.3487 C 10.66821,393.06596 1.2897942,361.74769 4.191223,335.76935 c 1.947081,-17.43346 6.727833,-30.56123 16.451316,-45.17472 7.474143,-11.23295 14.353234,-17.86338 32.526002,-31.35029 21.416258,-15.89407 29.245773,-22.48048 33.866415,-28.48941 2.576083,-3.35007 8.341417,-15.17373 16.458924,-33.75426 21.2972,-48.74815 30.36245,-66.59953 45.14602,-88.90197 12.69171,-19.14668 23.12739,-31.619217 45.25017,-54.082219 29.02623,-29.472604 44.46697,-41.499292 62.22445,-48.4662017 l 6.93549,-2.7210461 15.33001,14.3847348 c 8.4315,7.911604 24.23747,22.672525 35.12437,32.802046 40.57237,37.749839 61.3315,62.344956 73.92283,87.582686 5.45954,10.94297 7.25611,15.46552 18.27337,46 10.51979,29.15572 18.11517,43.19888 28.74034,53.1382 3.45093,3.22818 13.23888,10.8177 21.75101,16.8656 8.51213,6.04791 18.46381,13.56148 22.11484,16.69682 12.95039,11.12122 25.04943,30.37975 30.48409,48.52275 3.83918,12.81669 4.44427,33.51038 1.41035,48.2333 -3.79285,18.40585 -11.72899,36.87642 -23.97238,55.79333 -4.2732,6.60239 -6.56089,9.25 -7.99257,9.25 -1.10318,0 -6.40722,-3.4532 -11.78676,-7.67377 -19.41271,-15.23047 -42.28811,-28.20745 -66.28097,-37.60055 -11.74621,-4.59859 -27.66595,-9.72568 -30.19845,-9.72568 -0.77507,0 -2.95999,1.6337 -4.85538,3.63044 -11.93147,12.56945 -37.18511,22.57594 -70.44617,27.91354 -13.70734,2.1997 -54.60387,3.07949 -70.10675,1.50819 -14.33089,-1.45252 -29.59737,-4.29148 -37.85565,-7.03966 -3.34132,-1.11192 -11.46667,-5.1762 -18.05636,-9.03175 -17.93634,-10.49433 -20.74187,-11.41954 -34.48124,-11.37125 -10.58743,0.0372 -12.3729,0.33632 -22.5,3.76917 -18.948926,6.42325 -36.80792,17.1392 -59.314315,35.59041 -6.729515,5.517 -13.134371,10.03091 -14.233013,10.03091 -1.409744,0 -3.676671,-2.57475 -7.703904,-8.75 z m 56.211839,-52.64018 c 21.259193,-7.3646 38.871163,-13.60825 39.137693,-13.87479 0.26653,-0.26653 -6.62155,-20.56037 -15.30685,-45.09742 l -15.791449,-44.61281 -6.141808,-0.0124 -6.141808,-0.0124 -6.987269,8.25 c -10.988619,12.97447 -18.003851,23.35499 -23.822199,35.25 -7.765366,15.87548 -9.67167,23.84987 -9.801188,41 -0.12451,16.48707 2.473664,32.5 5.27328,32.5 0.510681,0 18.3224,-6.02558 39.581598,-13.39018 z m 194.028943,11.87277 c 31.56681,-4.75772 53.77723,-15.54365 72.58979,-35.25142 21.00492,-22.00446 31.8104,-50.07194 33.58244,-87.23117 2.90553,-60.9281 -30.28733,-127.99939 -93.7815,-189.499998 -15.88506,-15.386317 -33.30895,-30.5 -35.16208,-30.5 -2.02129,0 -23.5193,14.458534 -33.69851,22.664008 -79.2596,63.89126 -115.60662,168.52636 -85.57043,246.33846 15.85278,41.06837 39.45739,65.85379 67.64531,71.02922 22.00614,4.04043 56.34323,5.17165 74.39498,2.4509 z m 191.3571,-6.99603 c 1.98417,-11.74468 1.83561,-35.17741 -0.28521,-44.98656 -2.87944,-13.31783 -8.6817,-25.85344 -18.05164,-39 -5.28032,-7.40859 -16.73765,-20.29125 -22.21886,-24.98296 l -4.09384,-3.50418 -18.64588,46.61291 c -10.25524,25.63709 -18.42472,46.83406 -18.15442,47.10436 1.05062,1.05062 77.18925,27.16691 78.60189,26.96121 1.05237,-0.15323 1.90051,-2.59667 2.84796,-8.20478 z"
       style="fill:#778990;fill-opacity:1" />
    <path
       transform="scale(0.26458333)"
       id="path1281"
       d="m 237.90674,494.70836 c -20.48542,-21.68834 -28.84888,-32.17881 -34.36891,-43.10966 -4.30631,-8.52742 -4.52515,-9.36076 -4.16762,-15.87056 0.33094,-6.02581 0.71745,-7.16312 3.1436,-9.25 3.86871,-3.32773 7.37055,-2.98828 16.17515,1.5679 8.94818,4.63048 18.58348,12.13043 30.72235,23.91375 4.80853,4.66769 8.90674,8.29595 9.10714,8.0628 0.2004,-0.23314 2.2676,-4.11488 4.59379,-8.62609 5.07887,-9.84953 11.92222,-17.1029 19.77345,-20.95818 5.51927,-2.71019 6.42098,-2.83933 19.78285,-2.8333 8.1322,0.004 14.76067,0.45467 15.81489,1.07606 1.61664,0.9529 -1.58664,5.48559 -29.32382,41.49369 -22.82122,29.62625 -31.74456,40.50438 -33.40683,40.7251 -1.80161,0.23922 -5.47213,-3.091 -17.84604,-16.19151 z"
       style="fill:#778990;fill-opacity:1" />
    <path
       transform="scale(0.26458333)"
       id="path1283"
       d="m 238.16854,216.64366 c -25.88672,-5.53245 -44.62962,-22.36448 -45.82605,-41.15401 -0.56789,-8.9186 1.77984,-15.14691 8.40829,-22.30643 18.24416,-19.70587 64.14536,-25.69451 91.79464,-11.97628 18.23996,9.0498 28.59067,23.69796 27.40091,38.77737 -1.25446,15.89952 -16.46633,29.35005 -39.77779,35.17204 -10.95402,2.73574 -32.57588,3.50142 -42,1.48731 z m 31.55148,-25.67886 c 22.1141,-8.14806 12.0401,-32.8661 -13.39481,-32.8661 -8.36421,0 -16.53753,2.67882 -21.43575,7.02561 -4.05556,3.599 -4.22092,3.97548 -4.22092,9.61007 0,4.52922 0.52712,6.60336 2.31535,9.11046 6.53637,9.16406 22.69086,12.29502 36.73613,7.11996 z"
       style="fill:#778990;fill-opacity:1" />
  </g>
</svg>
