<?xml version="1.0" encoding="UTF-8" standalone="no"?>
<svg
   xmlns:dc="http://purl.org/dc/elements/1.1/"
   xmlns:cc="http://creativecommons.org/ns#"
   xmlns:rdf="http://www.w3.org/1999/02/22-rdf-syntax-ns#"
   xmlns:svg="http://www.w3.org/2000/svg"
   xmlns="http://www.w3.org/2000/svg"
   xmlns:sodipodi="http://sodipodi.sourceforge.net/DTD/sodipodi-0.dtd"
   xmlns:inkscape="http://www.inkscape.org/namespaces/inkscape"
   sodipodi:docname="otros_servicios.svg"
   inkscape:version="1.0 (6e3e5246a0, 2020-05-07)"
   id="svg8"
   version="1.1"
   viewBox="0 0 135.46666 135.46667"
   height="512"
   width="512">
  <defs
     id="defs2" />
  <sodipodi:namedview
     inkscape:window-maximized="1"
     inkscape:window-y="0"
     inkscape:window-x="1366"
     inkscape:window-height="737"
     inkscape:window-width="1366"
     units="px"
     showgrid="false"
     inkscape:document-rotation="0"
     inkscape:current-layer="layer1"
     inkscape:document-units="mm"
     inkscape:cy="253.50696"
     inkscape:cx="481.81682"
     inkscape:zoom="0.98994949"
     inkscape:pageshadow="2"
     inkscape:pageopacity="0.0"
     borderopacity="1.0"
     bordercolor="#666666"
     pagecolor="#ffffff"
     id="base" />
  <metadata
     id="metadata5">
    <rdf:RDF>
      <cc:Work
         rdf:about="">
        <dc:format>image/svg+xml</dc:format>
        <dc:type
           rdf:resource="http://purl.org/dc/dcmitype/StillImage" />
        <dc:title></dc:title>
      </cc:Work>
    </rdf:RDF>
  </metadata>
  <g
     id="layer1"
     inkscape:groupmode="layer"
     inkscape:label="Capa 1">
    <path
       transform="scale(0.26458333)"
       id="path88"
       d="m 247.87163,447.93177 c -5.03244,-0.91319 -8.31803,-2.05342 -13.30451,-4.61719 -28.43725,-14.6209 -43.97961,-58.76339 -33.50034,-95.14575 4.8564,-16.86064 16.01231,-30.99336 30.42759,-38.54675 14.54905,-7.62349 30.06265,-9.10528 43.27231,-4.13318 32.78739,12.34115 50.93434,62.9064 36.75099,102.40421 -4.16137,11.58857 -12.83962,23.20527 -22.13699,29.63253 -12.71774,8.79177 -28.54267,12.759 -41.50905,10.40613 z m 15.68385,-24.25901 c 9.28376,-1.91762 17.21678,-6.8193 22.67942,-14.01325 7.78285,-10.24953 11.2812,-23.91966 9.90883,-38.71977 -1.76497,-19.03413 -10.59846,-34.35394 -23.58241,-40.89869 -9.24372,-4.65944 -21.36462,-4.37824 -31.71457,0.73577 -12.15805,6.00741 -20.13605,18.55087 -22.40885,35.2325 -2.27187,16.67476 3.19165,36.10476 13.24131,47.09025 8.64732,9.45256 19.6435,13.09994 31.87627,10.57319 z"
       style="fill:#778990;fill-opacity:1;stroke-width:0.505076" />
    <path
       transform="scale(0.26458333)"
       id="path90"
       d="M 246.18388,402.21199 V 387.05971 H 233.55697 220.93006 V 375.44295 363.8262 h 12.62691 12.62691 v -15.15229 -15.15229 h 11.11168 11.11167 v 15.15229 15.15229 h 12.62691 12.62691 v 11.61675 11.61676 h -12.62691 -12.62691 v 15.15228 15.15229 h -11.11167 -11.11168 z"
       style="fill:#778990;fill-opacity:1;stroke-width:0.505076" />
    <path
       transform="scale(0.26458333)"
       id="path92"
       d="M 44.153369,237.55713 V 178.96828 H 257.29556 470.43774 v 58.58885 58.58885 H 257.29556 44.153369 Z m 407.091481,2.0203 V 205.73732 H 257.29556 63.346268 v 33.84011 33.84011 H 257.29556 451.24485 Z"
       style="fill:#778990;fill-opacity:1;stroke-width:0.505076" />
    <path
       transform="scale(0.26458333)"
       id="path94"
       d="M 44.153369,116.59136 V 57.749976 H 257.29556 470.43774 v 58.841384 58.84139 H 257.29556 44.153369 Z M 451.24485,114.82359 V 80.983484 H 257.29556 63.346268 V 114.82359 148.6637 H 257.29556 451.24485 Z"
       style="fill:#778990;fill-opacity:1;stroke-width:0.505076" />
  </g>
</svg>
