<?xml version="1.0" encoding="UTF-8" standalone="no"?>
<svg
   xmlns:dc="http://purl.org/dc/elements/1.1/"
   xmlns:cc="http://creativecommons.org/ns#"
   xmlns:rdf="http://www.w3.org/1999/02/22-rdf-syntax-ns#"
   xmlns:svg="http://www.w3.org/2000/svg"
   xmlns="http://www.w3.org/2000/svg"
   xmlns:sodipodi="http://sodipodi.sourceforge.net/DTD/sodipodi-0.dtd"
   xmlns:inkscape="http://www.inkscape.org/namespaces/inkscape"
   sodipodi:docname="redaccion.svg"
   inkscape:version="1.0 (6e3e5246a0, 2020-05-07)"
   id="svg1181"
   version="1.1"
   viewBox="0 0 135.46666 135.46667"
   height="512"
   width="512">
  <defs
     id="defs1175" />
  <sodipodi:namedview
     inkscape:window-maximized="1"
     inkscape:window-y="0"
     inkscape:window-x="1366"
     inkscape:window-height="737"
     inkscape:window-width="1366"
     units="px"
     showgrid="false"
     inkscape:document-rotation="0"
     inkscape:current-layer="layer1"
     inkscape:document-units="mm"
     inkscape:cy="230.09394"
     inkscape:cx="446.52904"
     inkscape:zoom="0.70710678"
     inkscape:pageshadow="2"
     inkscape:pageopacity="0.0"
     borderopacity="1.0"
     bordercolor="#666666"
     pagecolor="#ffffff"
     id="base" />
  <metadata
     id="metadata1178">
    <rdf:RDF>
      <cc:Work
         rdf:about="">
        <dc:format>image/svg+xml</dc:format>
        <dc:type
           rdf:resource="http://purl.org/dc/dcmitype/StillImage" />
        <dc:title></dc:title>
      </cc:Work>
    </rdf:RDF>
  </metadata>
  <g
     id="layer1"
     inkscape:groupmode="layer"
     inkscape:label="Capa 1">
    <path
       transform="scale(0.26458333)"
       id="path1541"
       d="m 9.2238706,375.55611 c -1.6770954,-2.55983 -1.7730529,-10.66428 -1.7730529,-149.75 0,-118.23995 0.2572619,-148.012221 1.3133269,-151.988015 C 12.498177,59.760493 21.343639,48.370672 32.731277,42.95692 l 6.719541,-3.19451 92.500002,-0.282648 c 50.875,-0.155456 93.45891,-0.04783 94.63092,0.239164 3.01963,0.739437 5.66018,6.647641 4.42408,9.898833 -0.5276,1.387676 -1.85122,3.000408 -2.94139,3.583849 -1.35591,0.725659 -31.01254,1.060802 -93.86973,1.060802 -103.957496,0 -98.053024,-0.431907 -105.207331,7.695816 -7.38573,8.390632 -8.036551,11.73859 -8.036551,41.341694 v 25.96249 H 191.33748 361.72413 l 0.43046,-20.75 c 0.47917,-23.098051 0.9283,-25.069779 7.32264,-32.147556 4.72823,-5.233587 12.26388,-7.774547 18.26467,-6.158702 6.35461,1.71112 10.42678,5.131107 13.67713,11.486652 l 3.00478,5.875372 0.37685,20.847114 0.37685,20.84712 h 43.88665 43.88666 v -25.96249 c 0,-24.092491 -0.15437,-26.375084 -2.14327,-31.690887 -2.66746,-7.129415 -9.63543,-14.390807 -15.47275,-16.1243 C 472.20259,54.55457 445.38995,54.26241 363.15738,54.26241 h -108.0614 l -2.07258,-2.634859 c -2.6333,-3.347698 -2.62909,-6.387935 0.0135,-9.747437 l 2.08607,-2.652012 109.76048,0.267154 c 79.12842,0.192596 110.15216,0.579634 111.16393,1.386831 0.77189,0.615822 3.01834,1.63926 4.99211,2.274307 9.87097,3.175922 19.66869,15.477634 24.0713,30.223195 0.98467,3.297925 1.31248,14.567124 1.32431,45.525971 0.0149,39.06732 -0.0804,41.24944 -1.88927,43.25 -2.4144,2.67025 -6.74151,2.70743 -9.12078,0.0784 -1.37999,-1.52487 -1.94614,-4.13169 -2.28039,-10.5 l -0.44464,-8.47155 H 448.89281 405.0856 l -0.70417,2.21864 c -0.3873,1.22025 -0.53012,42.73275 -0.31739,92.25 l 0.38678,90.03136 -4.61927,15.5 c -2.5406,8.525 -4.8985,16.68498 -5.23976,18.13328 -0.34127,1.4483 -1.93064,4.0358 -3.53194,5.75 -5.07947,5.43759 -13.09022,3.9122 -16.77355,-3.19398 -0.90921,-1.75412 -4.05664,-11.47975 -6.99429,-21.61253 l -5.34119,-18.42323 V 233.58918 143.26241 H 191.46731 20.983791 l -0.266487,114.75 c -0.255663,110.08957 -0.342231,114.86169 -2.131496,117.5 -2.540204,3.74559 -6.923211,3.76605 -9.3619374,0.0437 z M 386.80831,343.01241 c 1.18187,-3.9875 2.14742,-7.8125 2.14568,-8.5 -0.002,-0.84994 -1.785,-1.25 -5.57056,-1.25 -4.84095,0 -5.49705,0.22834 -5.02836,1.75 0.29647,0.9625 1.46987,4.7875 2.60757,8.5 1.1377,3.7125 2.43491,6.75 2.88269,6.75 0.44778,0 1.78112,-3.2625 2.96298,-7.25 z m 5.14251,-65.75 v -40 h -8.5 -8.5 v 40 40 h 8.5 8.5 z m 0,-109.54044 v -53.54045 l -8.25,0.29045 -8.25,0.29044 -0.25876,53.25 -0.25877,53.25 h 8.50877 8.50876 z m 0,-72.525302 c 0,-4.996058 -1.24939,-8.733144 -3.3997,-10.168946 -2.2073,-1.473851 -8.57512,-0.790494 -10.4915,1.125885 -1.94374,1.943747 -3.80661,11.170702 -2.63728,13.062716 0.36218,0.586016 4.13897,1.046087 8.5875,1.046087 h 7.94098 z"
       style="fill:#778990;fill-opacity:1" />
    <path
       transform="scale(0.26458333)"
       id="path1543"
       d="m 192.40536,196.80786 c -2.99863,-2.99863 -3.10373,-5.45043 -0.38196,-8.91059 l 2.07258,-2.63486 h 57.87071 57.87072 l 1.55671,2.22251 c 2.14517,3.06266 1.94921,7.38498 -0.4433,9.77749 -1.95325,1.95325 -3.33333,2 -59.04546,2 h -57.04545 z"
       style="fill:#778990;fill-opacity:1" />
    <path
       transform="scale(0.26458333)"
       id="path1545"
       d="m 93.609744,273.20876 c -4.412097,-3.47056 -4.806424,-7.05309 -4.470706,-40.61722 l 0.311779,-31.17087 2.448568,-2.60495 c 5.014477,-5.33473 6.341146,-5.55331 33.705075,-5.55331 16.2309,0 25.34636,0.35963 25.34636,1 0,0.55 0.81581,1 1.81291,1 0.9971,0 3.1346,1.37891 4.75,3.06426 l 2.93709,3.06425 0.31178,31.18575 c 0.33571,33.57975 -0.0584,37.16134 -4.47071,40.63209 -2.49593,1.9633 -3.87481,2.05365 -31.34107,2.05365 -27.466267,0 -28.84515,-0.0904 -31.341076,-2.05365 z m 54.341076,-38.94635 v -26 h -23 -23 v 26 26 h 23 23 z"
       style="fill:#778990;fill-opacity:1" />
    <path
       transform="scale(0.26458333)"
       id="path1547"
       d="m 174.95082,115.08746 c -11.8398,-3.36444 -18.59531,-18.385691 -14.54088,-32.332433 1.85885,-6.394229 7.78742,-13.495256 12.88519,-15.433424 3.85749,-1.466618 11.08817,-1.324701 14.93781,0.293186 4.9993,2.101058 11.29825,9.640635 13.26387,15.876295 4.21832,13.382033 -3.28007,28.180456 -16.04599,31.667546 -4.6648,1.27422 -5.79235,1.26658 -10.5,-0.0712 z m 9.52794,-14.01974 c 5.02093,-2.287685 6.98211,-9.984504 4.00904,-15.73379 -1.70479,-3.296704 -3.33446,-4.083365 -8.36877,-4.039718 -4.3237,0.03749 -6.69962,1.605515 -8.1289,5.364792 -1.4371,3.779854 -1.30379,6.243806 0.54906,10.148401 2.22258,4.683725 7.15079,6.442235 11.93957,4.260315 z"
       style="fill:#778990;fill-opacity:1" />
    <path
       transform="scale(0.26458333)"
       id="path1549"
       d="m 119.59928,115.23579 c -12.19419,-3.65509 -19.45485,-19.008061 -15.13701,-32.00786 1.87554,-5.646718 7.95117,-13.119152 12.63702,-15.542298 3.4771,-1.798079 10.94069,-1.833018 15.13365,-0.07084 4.9993,2.101058 11.29825,9.640635 13.26387,15.876295 4.21832,13.382033 -3.28007,28.180456 -16.04599,31.667546 -4.58419,1.2522 -5.89702,1.26248 -9.85154,0.0772 z m 8.87948,-14.16807 c 5.02093,-2.287685 6.98211,-9.984504 4.00904,-15.73379 -1.62766,-3.147548 -3.33807,-4.071521 -7.53698,-4.071521 -4.19892,0 -5.90933,0.923973 -7.53699,4.071521 -3.71502,7.184059 0.28355,16.49854 7.23993,16.86509 0.66163,0.0349 2.38287,-0.47422 3.825,-1.1313 z"
       style="fill:#778990;fill-opacity:1" />
    <path
       transform="scale(0.26458333)"
       id="path1551"
       d="M 62.480595,114.66805 C 50.906496,110.43096 44.329116,95.671689 48.465357,83.218635 c 2.013687,-6.062645 8.36729,-13.571399 13.203341,-15.603846 4.114784,-1.729321 10.449454,-1.729321 14.564238,0 4.836051,2.032447 11.189654,9.541201 13.203342,15.603846 4.383957,13.198859 -3.036666,28.473505 -15.58053,32.071035 -4.406218,1.26369 -6.544388,1.14685 -11.375153,-0.62162 z m 9.998164,-13.60033 c 5.02093,-2.287685 6.982114,-9.984504 4.009043,-15.73379 -1.62766,-3.147548 -3.338071,-4.071521 -7.536985,-4.071521 -4.198914,0 -5.909325,0.923973 -7.536985,4.071521 -2.900085,5.608147 -1.200655,12.846092 3.647056,15.53297 2.998896,1.66216 4.142624,1.69313 7.417871,0.20082 z"
       style="fill:#778990;fill-opacity:1" />
    <path
       transform="scale(0.26458333)"
       id="path1553"
       d="m 193.96742,240.97641 c -5.27362,-2.66827 -4.9374,-10.65302 0.53621,-12.73408 1.57025,-0.59701 24.18624,-0.97992 57.87743,-0.97992 54.43137,0 55.34143,0.0326 57.9349,2.07258 3.64388,2.86627 3.64388,7.98856 0,10.85484 -2.59441,2.04076 -3.48858,2.07235 -58.25,2.05784 -42.63722,-0.0113 -56.19465,-0.30796 -58.09854,-1.27126 z"
       style="fill:#778990;fill-opacity:1" />
    <path
       transform="scale(0.26458333)"
       id="path1555"
       d="m 224.20082,285.51307 c 15.2625,-0.15527 40.2375,-0.15527 55.5,0 15.2625,0.15526 2.775,0.28229 -27.75,0.28229 -30.525,0 -43.0125,-0.12703 -27.75,-0.28229 z"
       style="fill:#778990;fill-opacity:1" />
    <path
       transform="scale(0.26458333)"
       id="path1557"
       d="m 82.266189,326.25543 c -4.412166,-1.7777 -5.650635,-7.65776 -2.315372,-10.99302 1.976577,-1.97658 3.333334,-2 115.845013,-2 109.02121,0 113.91514,0.0775 115.5,1.82874 2.58031,2.85121 2.11316,7.6657 -0.97987,10.09868 -2.63099,2.06953 -2.79879,2.07249 -114.25,2.00919 -61.79117,-0.0351 -112.590341,-0.4563 -113.799771,-0.94359 z"
       style="fill:#778990;fill-opacity:1" />
    <path
       transform="scale(0.26458333)"
       id="path1559"
       d="m 194.30004,283.82625 c -5.9792,-2.62612 -5.14417,-11.17051 1.33231,-13.63286 1.60252,-0.60928 23.5477,-0.87599 58.0365,-0.70536 l 55.45957,0.27438 1.9112,2.36078 c 2.56818,3.17231 2.47556,8.31836 -0.1932,10.73423 -2.00985,1.8194 -4.60451,1.91505 -57.75,2.12884 -45.5725,0.18332 -56.21596,-0.0267 -58.79638,-1.16001 z"
       style="fill:#778990;fill-opacity:1" />
    <path
       transform="scale(0.26458333)"
       id="path1561"
       d="m 82.186272,369.22587 c -4.292705,-1.72458 -5.243517,-8.81254 -1.662525,-12.39353 1.408187,-1.40819 13.30145,-1.56993 115.441793,-1.56993 h 113.87187 l 1.55671,2.2225 c 2.29944,3.28293 1.93338,7.49172 -0.89785,10.32295 l -2.45454,2.45455 -111.79546,-0.0634 c -64.64679,-0.0367 -112.750503,-0.44707 -114.059998,-0.97315 z"
       style="fill:#778990;fill-opacity:1" />
    <path
       transform="scale(0.26458333)"
       id="path1563"
       d="M 34.647559,486.89253 C 23.87215,483.22076 14.850104,473.09981 9.9930601,459.23508 8.022855,453.61101 7.6565705,450.12975 7.1992379,432.68189 c -0.625038,-23.84605 -0.09519,-28.81855 3.3084101,-31.04867 3.037727,-1.9904 6.933446,-1.13989 8.661658,1.891 0.896686,1.57258 1.425698,9.52418 1.778864,26.73819 l 0.502648,24.5 3.110824,6 c 2.367762,4.56682 4.48024,6.95545 8.843874,10 l 5.733051,4 H 256.81756 474.49654 l 5.1914,-3.33131 c 4.68335,-3.0053 8.71135,-8.00067 11.82806,-14.66869 0.55676,-1.19117 1.13703,-55.23962 1.43482,-133.64531 0.48493,-127.6777 0.55741,-131.70875 2.40499,-133.75001 2.44064,-2.69649 6.74946,-2.69643 9.19002,1.2e-4 1.84866,2.04257 1.91302,5.77581 2.17639,126.25001 0.16815,76.9136 -0.10404,127.52852 -0.71543,133.03806 -2.01781,18.18366 -13.42875,34.17096 -27.48922,38.5138 l -6.77742,2.09333 -215.14467,-0.0258 -215.144662,-0.0258 z"
       style="fill:#778990;fill-opacity:1" />
    <path
       transform="scale(0.26458333)"
       id="path1565"
       d="m 82.266189,411.25984 c -4.429029,-1.79344 -5.580757,-7.26208 -2.276417,-10.80887 l 2.038956,-2.18856 H 257.45082 432.87291 l 2.03895,2.18856 c 2.55376,2.74114 2.59869,5.89861 0.12737,8.95065 l -1.91159,2.36079 -174.33841,0.19103 c -99.25786,0.10876 -175.279244,-0.18995 -176.523041,-0.6936 z"
       style="fill:#778990;fill-opacity:1" />
  </g>
</svg>
