<?xml version="1.0" encoding="UTF-8" standalone="no"?>
<svg
   xmlns:dc="http://purl.org/dc/elements/1.1/"
   xmlns:cc="http://creativecommons.org/ns#"
   xmlns:rdf="http://www.w3.org/1999/02/22-rdf-syntax-ns#"
   xmlns:svg="http://www.w3.org/2000/svg"
   xmlns="http://www.w3.org/2000/svg"
   xmlns:sodipodi="http://sodipodi.sourceforge.net/DTD/sodipodi-0.dtd"
   xmlns:inkscape="http://www.inkscape.org/namespaces/inkscape"
   sodipodi:docname="redise~o.svg"
   inkscape:version="1.0 (6e3e5246a0, 2020-05-07)"
   id="svg1181"
   version="1.1"
   viewBox="0 0 135.46666 135.46667"
   height="512"
   width="512">
  <defs
     id="defs1175" />
  <sodipodi:namedview
     inkscape:window-maximized="1"
     inkscape:window-y="0"
     inkscape:window-x="1366"
     inkscape:window-height="737"
     inkscape:window-width="1366"
     units="px"
     showgrid="false"
     inkscape:document-rotation="0"
     inkscape:current-layer="layer1"
     inkscape:document-units="mm"
     inkscape:cy="116.39643"
     inkscape:cx="249.19617"
     inkscape:zoom="2"
     inkscape:pageshadow="2"
     inkscape:pageopacity="0.0"
     borderopacity="1.0"
     bordercolor="#666666"
     pagecolor="#ffffff"
     id="base" />
  <metadata
     id="metadata1178">
    <rdf:RDF>
      <cc:Work
         rdf:about="">
        <dc:format>image/svg+xml</dc:format>
        <dc:type
           rdf:resource="http://purl.org/dc/dcmitype/StillImage" />
        <dc:title></dc:title>
      </cc:Work>
    </rdf:RDF>
  </metadata>
  <g
     id="layer1"
     inkscape:groupmode="layer"
     inkscape:label="Capa 1">
    <path
       transform="scale(0.26458333)"
       id="path1555"
       d="m 224.20082,285.51307 c 15.2625,-0.15527 40.2375,-0.15527 55.5,0 15.2625,0.15526 2.775,0.28229 -27.75,0.28229 -30.525,0 -43.0125,-0.12703 -27.75,-0.28229 z"
       style="fill:#778990;fill-opacity:1" />
    <path
       transform="scale(0.26458333)"
       id="path1632"
       d="m 165.12808,494.42718 v -9.75 h 10.5 10.5 v -20.97492 -20.97491 l -48.625,-0.18425 c -54.536149,-0.20665 -52.359579,-0.066 -60.219869,-3.89155 -8.928893,-4.34564 -14.166656,-11.62724 -16.525792,-22.97437 -0.669602,-3.2207 -0.762483,-8.58285 -0.658046,-37.98965 0.135861,-38.25478 -0.02489,-36.55347 3.544644,-37.51464 2.848842,-0.76712 11.302821,0.0527 13.775422,1.33588 3.321518,1.72372 3.95892,3.70399 3.956956,12.29341 l -0.0017,7.375 h 88.876695 88.87668 v 10 10 H 170.21905 81.310015 l -0.571887,10.125 c -1.121304,19.85216 1.084269,27.50511 8.753968,30.37471 l 2.786291,1.04249 167.207463,0.008 c 186.01116,0.009 170.10732,0.31779 173.79763,-3.37252 4.71262,-4.71262 5.8458,-12.31095 4.66838,-31.30293 l -0.42623,-6.875 h -51.94877 -51.94878 v -10 -10 h 52 52 l 0.002,-83.125 c 10e-4,-51.14522 0.19946,-86.23208 0.51474,-91.20123 1.25002,-19.70416 -1.99497,-28.3838 -11.76724,-31.47436 -1.71096,-0.5411 0.2162,-0.63735 13.33481,-0.66596 l 15.33482,-0.0335 0.79479,2.3929 c 2.58773,7.79092 2.43758,1.6666 2.82205,115.1071 0.21979,64.85422 0.55455,107.55284 0.87219,111.25 1.07776,12.54438 0.54568,24.75263 -1.44913,33.25 -2.94098,12.52771 -11.00316,21.30894 -22.20953,24.19033 -6.30678,1.6216 -12.02227,1.80146 -57.375,1.80557 l -45.375,0.004 v 21 21 h 10.25 10.25 v 9.75 9.75 h -94.25 -94.25 z m 146.5,-30.75 v -21 h -52.25 -52.25 v 21 21 h 52.25 52.25 z"
       style="fill:#778990;fill-opacity:1;stroke-width:0.5" />
    <path
       transform="scale(0.26458333)"
       id="path1634"
       d="m 297.97942,379.95602 c -1.04426,-0.3725 -2.73176,-1.23555 -3.75,-1.91788 -1.01824,-0.68233 -14.00134,-13.32997 -28.85134,-28.10587 -14.85,-14.7759 -27.9,-27.47979 -29,-28.23088 -1.1,-0.75108 -2.76482,-1.62629 -3.69961,-1.94491 -2.32183,-0.79138 -155.157844,-0.81553 -172.290939,-0.0272 -18.271594,0.84068 -27.516511,-0.32153 -36.00945,-4.5269 C 9.5487342,307.85948 5.1182871,292.7116 7.3251923,256.89786 7.9589881,246.6126 8.1280814,234.47643 8.1280814,199.27287 V 154.67718 H 18.153719 28.179358 l -0.06009,65.875 c -0.05466,59.91377 0.0146,66.11911 0.765275,68.57254 1.625858,5.31379 4.515798,8.20366 9.761746,9.76154 2.381372,0.7072 11.32057,0.79062 84.447541,0.7881 66.52371,-0.002 84.14876,-0.14215 94.4561,-0.74957 9.36066,-0.55163 13.83821,-0.61464 17.13548,-0.24112 8.80024,0.99691 10.86539,2.27995 22.44267,13.94323 18.78951,18.92908 33.47102,33.24592 33.77797,32.93897 0.17366,-0.17365 -0.0768,-6.05048 -0.55655,-13.05961 -1.26397,-18.46603 -0.20407,-25.96979 4.23461,-29.97988 3.39996,-3.07165 2.73257,-3.01725 37.54397,-3.06011 28.20416,-0.0347 31.98928,-0.13096 33.89252,-0.86164 4.31348,-1.65603 6.98637,-4.26265 8.1811,-7.97829 0.38056,-1.18354 0.51366,-14.10305 0.4386,-42.57416 l -0.10775,-40.875 h 10.54776 10.54777 l -0.002,39.875 c -0.002,43.02516 -0.11751,45.27631 -2.68158,52.34024 -4.37791,12.06101 -13.61709,18.49268 -29.91295,20.82331 -5.62652,0.80471 -22.12975,0.68836 -36.40346,-0.25663 -6.4625,-0.42785 -12.59375,-0.77882 -13.625,-0.77992 l -1.87501,-0.002 v 25.90925 c 0,21.88121 -0.11979,26.31262 -0.77051,28.50384 -1.64194,5.52901 -6.99962,8.28431 -12.37815,6.36575 z"
       style="fill:#778990;fill-opacity:1;stroke-width:0.5" />
    <path
       transform="scale(0.26458333)"
       id="path1636"
       d="m 300.62638,238.17383 c -6.29158,-0.40972 -11.0199,-1.23703 -13.06374,-2.28576 -2.80576,-1.43968 -5.76351,-6.22689 -7.14775,-11.56886 -2.0977,-8.09526 -1.97582,-20.18321 0.27712,-27.48472 1.52053,-4.92788 3.73046,-7.9006 11.11878,-14.95661 l 6.56729,-6.27189 -7.77339,0.34791 c -9.0496,0.40503 -13.48333,-0.15554 -17.22661,-2.17801 -3.56705,-1.92725 -5.32758,-4.86114 -8.04247,-13.40261 -1.44764,-4.55448 -3.54342,-9.64336 -5.74345,-13.94599 -3.05,-5.9649 -3.46408,-7.10494 -3.46408,-9.53725 0,-4.43194 1.40881,-6.52713 8.84832,-13.15922 9.59785,-8.55619 9.67948,-11.33862 0.592,-20.17864 -2.75631,-2.68125 -5.31242,-4.875 -5.68025,-4.875 -0.36783,0 -1.8505,1.51875 -3.29482,3.375 -3.79559,4.87811 -10.29413,11.1053 -13.66815,13.09744 -5.63668,3.32808 -9.6296,2.74378 -20.5471,-3.00677 -3.15189,-1.66018 -7.52791,-3.47188 -10.25,-4.24356 -6.90956,-1.95878 -10.48268,-3.70878 -12.58334,-6.16292 -2.84854,-3.32788 -3.18103,-5.275025 -3.06244,-17.93419 l 0.10422,-11.125 h -10.39329 -10.39328 l 0.0391,11.125 c 0.0342,9.73893 -0.0783,11.436475 -0.90272,13.625 -2.10404,5.58523 -4.97912,7.64717 -15.05821,10.7994 -3.81925,1.19447 -9.42721,3.49198 -13.59759,5.57076 -6.29655,3.13859 -7.42516,3.54011 -10,3.55761 -4.28451,0.0292 -6.49532,-1.34557 -13.24839,-8.23796 -3.30549,-3.37368 -6.61211,-6.2867 -7.60894,-6.7032 -3.65269,-1.52619 -6.77728,-0.62255 -10.56019,3.05402 -3.23966,3.14859 -4.23084,5.024 -4.23302,8.00935 -0.002,3.21812 1.36407,5.19605 6.70117,9.70002 4.85713,4.09892 7.77106,7.83542 8.59869,11.02602 0.88177,3.39934 -0.058,6.82858 -3.5781,13.05578 -1.72965,3.05987 -3.53136,7.30062 -4.913,11.56392 -3.55423,10.96719 -5.95096,14.27832 -11.701501,16.16582 -2.479176,0.81374 -4.33756,0.92995 -13.984133,0.87445 l -11.124985,-0.064 v 4.68901 4.68901 H 60.447657 50.267233 l -0.3335,-7.875 c -0.563571,-13.30766 0.98963,-18.13776 6.694348,-20.81792 2.093347,-0.98348 2.942293,-1.0469 12.193373,-0.91083 11.382133,0.16742 14.574489,-0.28398 16.986675,-2.40191 1.968384,-1.72826 5.694174,-9.36113 6.098792,-12.49434 0.455593,-3.52794 -1.705956,-6.57235 -9.39634,-13.23415 -6.984517,-6.05034 -7.921844,-7.09735 -9.45326,-10.55936 -1.267516,-2.86544 -1.016685,-5.07129 1.039945,-9.14545 2.907503,-5.75973 7.919083,-11.073275 21.918492,-23.239165 9.627562,-8.36663 12.263672,-10.03654 15.841552,-10.035255 4.87252,0.002 7.53045,1.93284 16.74844,12.168365 3.20221,3.555695 4.88175,4.993795 6.9243,5.9289 3.62345,1.658875 5.5609,1.341895 12.06588,-1.974055 7.40288,-3.773655 7.2668,-3.438835 7.33645,-18.05135 l 0.0543,-11.39152 1.46129,-2.857323 c 1.11404,-2.178334 1.99226,-3.154636 3.69571,-4.10848 l 2.23441,-1.251157 h 23.51335 23.51335 l 2.48529,1.278977 c 4.9516,2.548179 6.66186,9.099478 5.73404,21.964708 -0.66763,9.25749 -0.63844,12.506315 0.11237,12.506315 0.33462,0 3.10733,1.01135 6.16159,2.24745 6.87077,2.78068 9.38339,3.192025 12.03225,1.969795 1.1607,-0.535565 4.9784,-3.983215 9.44776,-8.532 8.2536,-8.400255 10.48022,-9.867105 15,-9.88167 3.05318,-0.0099 7.15315,2.03702 11.83874,5.910335 4.0157,3.31955 23.85005,23.9548 25.28135,26.30219 2.57253,4.21905 2.32613,9.23251 -0.66596,13.55009 -0.79674,1.1497 -4.0015,4.33625 -7.12168,7.08121 -6.17075,5.42869 -8.87766,8.67919 -9.38346,11.26786 -0.40464,2.0709 1.56233,7.30028 3.98721,10.60036 1.92744,2.62309 6.16377,5.08276 10.21341,5.93003 3.31214,0.69296 10.89859,0.71173 17.67242,0.0437 3.9719,-0.3917 5.79515,-0.82844 7.82766,-1.875 2.06265,-1.06208 14.67905,-13.16198 56.94563,-54.61435 29.86275,-29.2875 57.83768,-57.075 62.16649,-61.75 12.83765,-13.864299 19.35666,-19.83162 25.67431,-23.501527 6.09653,-3.5414561 13.75896,-0.496189 24.09261,9.575085 3.84737,3.749681 14.10185,15.003977 17.64535,19.365769 7.00685,8.62494 4.56585,15.011728 -10.85074,28.390618 -4.65187,4.037 -57.29998,55.104745 -63.99804,62.076955 l -1.67469,1.74325 2.74502,0.798 c 1.50976,0.43889 4.84075,1.84712 7.4022,3.12938 5.7646,2.88577 10.3223,7.25804 13.12439,12.59043 l 1.88231,3.58204 -14.90227,0.0575 c -8.19624,0.0317 -16.36476,-0.0246 -18.15226,-0.125 -7.64816,-0.4295 -10.40311,-0.11749 -13.82145,1.56535 -3.65504,1.79938 -10.28093,7.84507 -16.67511,15.21498 -2.16505,2.49544 -13.44862,13.87466 -25.07458,25.28716 -11.62597,11.4125 -23.46242,23.225 -26.30323,26.25 -9.28942,9.89174 -14.08133,13.23477 -20.73532,14.46581 -5.04176,0.93276 -12.08731,1.22397 -18.89201,0.78084 z m 85.64525,-88.86734 c 35.53355,-34.85387 71.80645,-70.42139 80.60645,-79.03893 8.8,-8.617535 16.41287,-16.432569 16.91749,-17.366735 1.21481,-2.248893 0.79647,-3.971662 -1.82301,-7.507327 -2.45167,-3.309166 -7.09111,-6.950462 -9.94522,-7.805573 -1.89789,-0.56862 -2.22255,-0.5041 -5.18053,1.029542 -5.4433,2.822218 -10.49472,7.561537 -23.13409,21.704749 -7.71302,8.630719 -95.11118,94.351434 -111.39296,109.254964 -6.63208,6.07068 -14.10051,13.24539 -16.59652,15.9438 -5.15688,5.57506 -10.09516,11.6343 -10.09516,12.3867 0,0.90526 14.2093,14.7695 15.13709,14.7695 0.52213,0 28.02646,-26.60758 65.50646,-63.37069 z"
       style="fill:#778990;fill-opacity:1;stroke-width:0.5" />
    <path
       transform="scale(0.26458333)"
       id="path1638"
       d="m 94.759371,237.15156 c -1.033764,-0.31913 -1.921141,-1.08235 -2.455624,-2.11205 -1.005755,-1.93761 -1.436638,-7.51324 -0.939424,-12.15615 0.296909,-2.7725 0.616475,-3.63582 1.774479,-4.79383 l 1.412356,-1.41235 h 82.288462 82.28846 v 10.25 10.25 h -77.67456 c -42.72101,0 -79.33976,0.10667 -81.375,0.23705 -2.035241,0.13038 -4.428858,0.0122 -5.319149,-0.26267 z"
       style="fill:#778990;fill-opacity:1;stroke-width:0.5" />
    <path
       transform="scale(0.26458333)"
       id="path1640"
       d="m 209.37808,184.73583 c -2.11241,-0.97106 -2.9989,-2.24495 -6.63849,-9.53957 -2.1244,-4.25782 -4.99667,-6.81871 -9.61151,-8.56952 -4.10648,-1.55794 -11.0899,-1.1941 -15.25,0.79454 -5.67803,2.71425 -11.68352,10.28724 -12.57399,15.85595 l -0.30382,1.89995 h -10.23519 -10.23519 l 0.33376,-3.125 c 1.51129,-14.15029 9.81116,-25.75579 22.9869,-32.14201 15.37828,-7.45378 32.18708,-5.58866 45.33585,5.03051 7.49124,6.05005 12.79561,16.33969 14.19626,27.53848 l 0.31918,2.55199 -2.35667,0.32301 c -1.29616,0.17766 -4.96901,0.31808 -8.16187,0.31204 -4.56002,-0.009 -6.23421,-0.20819 -7.80522,-0.93037 z"
       style="fill:#778990;fill-opacity:1;stroke-width:0.5" />
    <path
       transform="scale(0.26458333)"
       id="path1642"
       d="M 7.9289608,119.80218 C 7.7596299,100.62093 7.4869423,77.40388 7.3229883,68.20874 6.8154479,39.744013 8.3493243,31.013143 15.297373,22.818298 23.609456,13.014651 35.273156,9.6249707 60.375016,9.7179256 c 6.051685,0.02241 13.815565,0.2721033 17.253065,0.5548744 3.95205,0.325097 58.643219,0.639157 148.749999,0.854184 133.58805,0.318789 142.70326,0.394851 145.75,1.216222 5.46123,1.472289 10.29219,4.175115 13.94891,7.804132 4.02653,3.996022 6.19074,7.944809 7.89381,14.402978 1.1415,4.328616 1.31365,6.127514 1.53135,16.001864 l 0.24528,11.125 h -10.45999 -10.45999 l 0.0253,-9.875 c 0.0251,-9.791997 0.0136,-9.900103 -1.37304,-12.861438 -0.76909,-1.642541 -1.78159,-3.410233 -2.25,-3.928205 -0.96889,-1.071427 -4.09311,-2.754228 -6.33741,-3.41353 C 364.022,31.343341 294.61993,31.150822 201.69045,31.146292 19.164788,31.137392 37.047358,30.710269 32.571956,35.18567 c -1.816019,1.81602 -2.624697,3.162056 -3.486348,5.802991 l -1.121862,3.438519 0.138182,55.125 0.138181,55.125 H 18.238472 8.2368352 Z"
       style="fill:#778990;fill-opacity:1;stroke-width:0.5" />
    <path
       transform="scale(0.26458333)"
       id="path1644"
       d="m 50.22045,226.98371 v -10.25 h 10.25 10.25 v 10.25 10.25 h -10.25 -10.25 z"
       style="fill:#778990;fill-opacity:1;stroke-width:0.5" />
  </g>
</svg>
