<?xml version="1.0" encoding="UTF-8" standalone="no"?>
<svg
   xmlns:dc="http://purl.org/dc/elements/1.1/"
   xmlns:cc="http://creativecommons.org/ns#"
   xmlns:rdf="http://www.w3.org/1999/02/22-rdf-syntax-ns#"
   xmlns:svg="http://www.w3.org/2000/svg"
   xmlns="http://www.w3.org/2000/svg"
   xmlns:sodipodi="http://sodipodi.sourceforge.net/DTD/sodipodi-0.dtd"
   xmlns:inkscape="http://www.inkscape.org/namespaces/inkscape"
   sodipodi:docname="seo.svg"
   inkscape:version="1.0 (6e3e5246a0, 2020-05-07)"
   id="svg8"
   version="1.1"
   viewBox="0 0 135.46666 135.46667"
   height="512"
   width="512">
  <defs
     id="defs2" />
  <sodipodi:namedview
     inkscape:window-maximized="1"
     inkscape:window-y="0"
     inkscape:window-x="1366"
     inkscape:window-height="737"
     inkscape:window-width="1366"
     units="px"
     showgrid="false"
     inkscape:document-rotation="0"
     inkscape:current-layer="layer1"
     inkscape:document-units="mm"
     inkscape:cy="562.41394"
     inkscape:cx="451.29716"
     inkscape:zoom="0.49497475"
     inkscape:pageshadow="2"
     inkscape:pageopacity="0.0"
     borderopacity="1.0"
     bordercolor="#666666"
     pagecolor="#ffffff"
     id="base" />
  <metadata
     id="metadata5">
    <rdf:RDF>
      <cc:Work
         rdf:about="">
        <dc:format>image/svg+xml</dc:format>
        <dc:type
           rdf:resource="http://purl.org/dc/dcmitype/StillImage" />
        <dc:title></dc:title>
      </cc:Work>
    </rdf:RDF>
  </metadata>
  <g
     id="layer1"
     inkscape:groupmode="layer"
     inkscape:label="Capa 1">
    <path
       id="path24"
       d="M 7.3590733,67.667738 H 28.092897 c 0.422338,10.182109 2.19463,21.390464 7.211764,30.320562 -3.576134,0.911486 -7.234302,1.487577 -10.817648,2.39299 -1.399082,0.35313 -3.464802,1.39662 -4.879659,0.77342 -2.063016,-0.90869 -5.761299,-10.608945 -8.368802,-8.367089 -1.279638,1.100414 -0.06762,3.171075 0.549447,4.267746 2.167134,3.850713 4.782752,7.509243 7.758505,10.728823 10.812689,11.69859 26.181861,18.92981 41.900809,19.12341 12.402874,0.15254 24.462743,-3.68231 34.706615,-10.88743 2.766613,-1.94611 5.858202,-4.16556 8.010012,-6.84357 0.74462,-0.92688 1.87641,-2.80769 0.40386,-3.68465 -2.237,-1.33177 -6.829989,4.33631 -8.413872,5.64709 -7.853611,6.49932 -16.641598,9.02853 -26.142656,11.57219 4.735881,-4.26821 9.39243,-8.31717 13.227281,-13.52764 0.737857,-1.00291 4.019207,-5.62236 0.702696,-5.71332 -2.250075,-0.062 -4.303617,4.16791 -5.563877,5.71332 -4.08681,5.01222 -9.004783,8.94876 -14.225656,12.5947 0,-4.50891 0.02976,-9.01873 -4.48e-4,-13.52763 -0.0089,-1.31312 0.09378,-3.90157 -1.779954,-3.90157 -1.825929,0 -1.806096,2.60757 -1.823675,3.90157 -0.06084,4.50749 -0.0017,9.01966 -0.0017,13.52763 -16.70475,-13.32473 -28.832684,-31.471817 -28.847108,-54.110552 1.233212,0 8.643751,0.341451 6.28911,-2.919181 -1.075455,-1.48944 -4.714691,-0.812593 -6.28911,-0.812593 9.03e-4,-7.515299 1.718654,-14.845876 4.057971,-21.924096 0.663031,-2.005831 1.72947,-6.375259 3.705945,-7.371172 1.660959,-0.837306 4.455968,0.121782 6.208878,0.294815 4.959891,0.490724 9.889583,0.54577 14.874264,0.54577 0,6.684513 -0.07798,13.374169 0.0017,20.058218 0.01532,1.30239 1.101149,6.647211 3.141174,3.576431 0.960517,-1.446056 0.462902,-4.243017 0.462902,-5.908771 0,-4.453393 -1.451821,-12.171622 0.271799,-16.257434 1.359408,-3.22144 9.808441,0.566767 9.808441,-3.334324 0,-3.99345 -8.054628,-0.06255 -9.616878,-2.480686 -1.008303,-1.560354 -0.463362,-4.591478 -0.463362,-6.382252 V 9.8254116 c 7.662956,5.3499504 15.766276,12.1352204 19.832361,20.9911634 -1.418475,0.01196 -5.788352,-0.140412 -5.444441,2.330026 0.426846,3.065173 6.778154,0.0079 8.476082,3.276486 2.66339,5.126036 4.293702,11.087064 5.32499,16.784072 0.379968,2.097239 8.95e-4,6.08556 1.443249,7.707017 2.099973,2.361271 2.855411,-1.571079 2.802668,-3.042324 -0.167221,-4.671225 -1.483815,-9.534179 -2.75128,-13.994105 -1.046607,-3.683245 -2.653028,-7.157993 -3.991712,-10.728819 3.945281,-0.08449 13.012278,-4.556014 16.184548,-2.142037 5.20103,3.958477 8.25702,13.695111 9.88959,19.867915 0.53006,2.003952 0.68511,7.775127 2.83106,8.554134 3.2854,1.192761 1.74254,-4.840569 1.47436,-6.221781 -1.23182,-6.336542 -3.49631,-12.628297 -6.69473,-18.192351 C 104.37128,19.084386 88.375137,7.600811 70.462011,5.2941181 39.249946,1.2754772 9.2183557,23.417425 4.468057,56.012967 3.2618899,64.289555 3.3754752,73.062935 5.3893601,81.195369 5.9532299,83.474077 6.5756952,87.772605 8.4489515,89.301224 10.037343,90.597545 11.390451,88.947172 11.11505,87.257154 10.013904,80.502667 7.3590733,74.733833 7.3590733,67.667738 M 55.137012,8.8924651 C 51.297649,13.773615 45.952381,17.326258 42.171611,22.42011 40.715737,24.381617 38.937587,28.719323 36.60999,29.583697 33.16502,30.862763 25.538579,27.908596 22.233337,26.618343 29.439693,16.059794 43.455757,11.170247 55.137012,8.8924651 m 15.324999,0 C 82.030589,11.841965 95.540478,16.007537 102.91495,26.618343 99.506496,27.746273 91.633503,31.080595 88.188981,29.595359 86.632594,28.924105 85.769883,26.5773 84.872469,25.218936 83.013185,22.403317 80.869042,19.729512 78.568486,17.288931 76.481136,15.074141 71.228718,11.796716 70.462011,8.8924651 M 60.545835,9.8254116 V 32.215982 L 41.164219,30.816575 C 43.783442,22.309554 53.249784,14.033443 60.545835,9.8254116 M 35.304661,33.615401 c -4.094029,10.190507 -5.88435,19.449018 -7.211764,30.320563 H 6.9083378 c 0.3822241,-9.209044 2.978459,-18.585569 7.4042282,-26.588803 1.159292,-2.095388 2.919864,-6.326743 5.294788,-7.139799 3.360681,-1.151241 12.318144,2.223663 15.697307,3.408039 m 12.620587,30.568728 c -9.693062,2.390204 -6.761029,16.847515 -6.761029,24.474772 0,3.797068 -0.510232,7.744807 2.302356,10.679841 3.815023,3.981318 9.896343,2.847788 14.825584,2.847788 h 36.960293 11.268378 c 1.25441,-4.6e-4 3.26242,0.32468 4.21573,-0.74634 1.79752,-2.019361 -1.5636,-2.935964 -2.86396,-2.978421 -5.24747,-0.171196 -10.525132,-0.0066 -15.775289,-0.0066 H 58.742894 c -3.769948,0 -9.706584,1.24314 -12.517819,-1.916721 -2.815744,-3.165467 -1.454974,-10.385965 -1.454974,-14.409736 0,-3.447682 -1.075904,-9.239842 1.097091,-12.102573 3.197515,-4.213162 12.309579,-2.358006 16.932322,-2.358006 h 47.777936 c 5.13568,0 14.94593,-2.085589 18.02355,3.267627 1.12277,1.953573 0.44668,4.025636 0.62651,6.147601 0.44128,5.217472 2.0815,16.609148 -2.44343,20.236421 -2.35193,1.885939 -10.42686,-0.451081 -11.29812,2.632299 -0.95106,3.367449 9.58082,2.415839 11.31796,1.860279 2.53583,-0.81166 4.71333,-3.065178 5.49762,-5.689544 0.73468,-2.459225 0.36194,-5.3854 0.36194,-7.929992 0,-6.806268 2.6066,-19.959337 -4.95809,-23.325844 -6.30804,-2.807686 -16.21836,-0.930619 -22.9875,-0.930619 H 66.405394 c -5.782483,0 -12.849562,-1.140042 -18.480146,0.248165 m 13.97279,6.113566 c -5.312362,1.589735 -7.259538,8.666077 -3.106465,12.658603 2.125668,2.043608 4.743984,1.473573 7.156324,2.704601 1.414858,0.72162 2.743627,2.170018 2.466869,3.930472 -0.659867,4.192176 -5.733347,4.777126 -8.26152,2.272639 -0.877131,-0.868565 -2.365009,-3.577357 -3.825391,-1.981566 -1.179124,1.288401 0.279456,3.351591 1.15929,4.325119 2.134232,2.36221 5.47779,3.262959 8.46751,2.414916 5.398457,-1.531424 8.05735,-8.728596 3.521144,-12.910962 -2.118909,-1.953109 -4.79717,-1.346237 -7.120264,-2.599174 -1.400882,-0.755683 -2.740017,-2.375738 -2.466872,-4.114731 0.689625,-4.385759 6.197605,-4.471588 8.601384,-1.817842 0.750469,0.828447 2.072031,3.251296 3.423785,1.910202 1.194,-1.183901 -0.09199,-3.247105 -0.869917,-4.247223 -2.128823,-2.736771 -5.947461,-3.502251 -9.145877,-2.545054 m 43.270592,-0.07934 C 91.971996,72.865503 94.813891,99.543878 108.7745,96.83695 122.54673,94.166398 119.90857,67.262721 105.16863,70.218752 M 80.828922,80.262791 v -6.530587 c 2.230693,-0.182394 11.496901,1.119058 12.182923,-1.478717 0.451185,-1.707272 -1.674483,-1.76372 -2.719287,-1.784242 -2.847286,-0.05646 -9.160289,-1.189971 -11.573984,0.477197 -1.54872,1.069617 -1.044793,3.94261 -1.044793,5.584588 v 14.927052 c 0.0025,1.803839 -0.25602,4.367088 1.852067,4.982833 3.092049,0.903089 8.018584,0.414693 11.217,0.120857 1.125478,-0.103137 3.23267,-1.006651 1.957538,-2.491886 -3.115034,-3.628213 -11.732184,3.06611 -11.869215,-4.477657 -0.01981,-1.074748 -0.06758,-2.191478 0.02441,-3.262959 0.323635,-3.774668 4.527185,-2.751238 7.184722,-2.803481 1.060585,-0.0205 3.292619,-0.0718 2.816647,-1.821571 C 90.151093,79.107384 82.858649,80.26283 80.828986,80.26283 m 24.790444,-6.813263 c 10.58868,-2.503085 12.38846,17.911525 2.70441,20.085271 -9.792223,2.19801 -11.849381,-17.923188 -2.70441,-20.085271 M 55.137077,122.71161 C 43.489175,120.44037 29.404599,115.51444 22.2334,104.98574 c 3.358881,-1.31125 10.862721,-4.2542 14.381612,-2.96535 2.385291,0.87371 4.07645,5.16896 5.556663,7.16359 3.78077,5.09384 9.126038,8.64648 12.965402,13.52763 m 92.400713,52.71116 -0.90145,2.33234 0.90145,1.86588 0.45075,-1.3994 h 0.45073 v 1.3994 h 0.45074 l 0.90147,-1.86588 -0.45073,-2.33234 h -1.80296 m 2.70442,0.93293 1.3522,-0.46646 -0.90145,1.86587 1.3522,0.93294 h -2.25368 v 0.46647 l 3.15515,-0.46647 c -0.45705,-1.3313 -1.07546,-4.19216 -2.70442,-2.33235 m 4.05662,0 h 1.35221 c -1.52844,-1.74413 -2.95277,1.11208 -1.79213,2.49002 1.18274,1.40407 2.21403,-1.14659 0.43992,-2.49002 m 2.25368,0 1.3522,-0.46646 -1.80294,3.73175 c 2.34879,-0.0135 5.04734,0.51311 6.3103,-1.86588 h 0.45073 c 0.49626,1.54588 1.32877,1.913 2.25368,0.46648 l 3.60588,0.46646 h 2.70441 0.45074 3.15515 v -0.46646 c -0.58372,-1.2744 -1.22781,-3.55218 -2.70442,-1.86589 l 1.35222,-0.46646 -0.90148,1.86587 1.35221,0.93294 -4.9581,-2.33235 1.35221,-0.46646 -0.90146,1.86587 1.3522,0.93294 c -2.04183,-0.0608 -2.56107,-1.30284 -2.70442,-3.26528 l -2.25368,2.79882 h -0.45072 c -0.41108,-2.66869 -2.11846,-2.98541 -3.15515,-0.46648 -0.85325,-0.81353 -1.66322,-1.2548 -0.45075,-1.86587 v -0.46647 h -2.25366 v 2.33234 l 1.35221,-0.46647 0.45073,0.46647 -0.45073,1.39941 h -3.15516 c 0.53503,-1.33923 0.59904,-5.02528 -1.3522,-2.79882 m 19.56371,-0.38436 c -1.37789,0.77013 -0.59137,3.98925 0.99748,3.10108 1.43154,-0.79999 0.63553,-4.01397 -0.99748,-3.10108 m -11.90122,-0.0822 v 3.26528 h -0.45072 l 0.45072,-3.26528 m 12.6206,0 v 3.26528 h -0.45075 l 0.45075,-3.26528 m -28.54642,1.24407 -0.15055,0.31067 0.15055,-0.31067 m 19.08098,-0.31114 -0.90147,1.39942 0.90147,-1.39942 m -12.6206,0.46647 v 1.86588 z"
       style="fill:#808080;stroke:none;stroke-width:0.458536" />
  </g>
</svg>
