<?xml version="1.0" encoding="UTF-8" standalone="no"?>
<svg
   xmlns:dc="http://purl.org/dc/elements/1.1/"
   xmlns:cc="http://creativecommons.org/ns#"
   xmlns:rdf="http://www.w3.org/1999/02/22-rdf-syntax-ns#"
   xmlns:svg="http://www.w3.org/2000/svg"
   xmlns="http://www.w3.org/2000/svg"
   xmlns:sodipodi="http://sodipodi.sourceforge.net/DTD/sodipodi-0.dtd"
   xmlns:inkscape="http://www.inkscape.org/namespaces/inkscape"
   inkscape:version="1.0 (6e3e5246a0, 2020-05-07)"
   id="svg1181"
   version="1.1"
   viewBox="0 0 135.46666 135.46667"
   height="512"
   width="512">
  <defs
     id="defs1175" />
  <sodipodi:namedview
     inkscape:window-maximized="1"
     inkscape:window-y="0"
     inkscape:window-x="1366"
     inkscape:window-height="737"
     inkscape:window-width="1366"
     units="px"
     showgrid="false"
     inkscape:document-rotation="0"
     inkscape:current-layer="layer1"
     inkscape:document-units="mm"
     inkscape:cy="168.7932"
     inkscape:cx="194.53547"
     inkscape:zoom="0.5"
     inkscape:pageshadow="2"
     inkscape:pageopacity="0.0"
     borderopacity="1.0"
     bordercolor="#666666"
     pagecolor="#ffffff"
     id="base" />
  <metadata
     id="metadata1178">
    <rdf:RDF>
      <cc:Work
         rdf:about="">
        <dc:format>image/svg+xml</dc:format>
        <dc:type
           rdf:resource="http://purl.org/dc/dcmitype/StillImage" />
        <dc:title></dc:title>
      </cc:Work>
    </rdf:RDF>
  </metadata>
  <g
     id="layer1"
     inkscape:groupmode="layer"
     inkscape:label="Capa 1">
    <path
       id="path1209"
       d="m 29.065152,93.501755 c 0,-0.25872 -7.473804,-82.623153 -7.527502,-82.956102 L 21.48579,10.224261 H 11.387376 1.2889556 V 6.3129174 2.4015615 L 2.3147769,2.3058045 C 2.8789691,2.2531115 4.9030304,2.0533045 6.8126307,1.8617522 12.30828,1.3104839 13.583891,1.2262034 16.43959,1.2256203 c 4.584192,-9.286e-4 6.971011,0.4772371 8.766437,1.7562604 1.492286,1.0630892 2.295422,3.3957729 2.764017,8.0280773 0.150472,1.485865 0.188331,2.863484 0.190555,6.892442 l 0.0026,5.035415 h 53.436663 c 50.848868,0 53.433228,0.01212 53.365878,0.249994 -0.0388,0.137526 -2.81437,11.676044 -6.16772,25.641187 l -6.09698,25.3912 -2.83418,9.106731 -2.83412,9.106732 -0.45221,0.03456 c -0.24877,0.0216 -5.73126,0.292841 -12.18344,0.607237 l -11.731222,0.5713 -31.800555,-1.29e-4 c -21.595089,-4.3e-5 -31.800524,-0.04708 -31.800524,-0.145983 z m 72.228518,-8.278742 c 5.72886,-0.31271 10.66855,-0.58577 10.97708,-0.607193 l 0.56098,-0.03887 2.34168,-7.499515 2.34163,-7.499558 4.59379,-19.289939 c 2.52655,-10.60947 4.59373,-19.335753 4.59373,-19.391718 0,-0.05597 -21.79973,-0.101717 -48.443859,-0.101717 H 29.814874 l 0.04867,0.464258 c 0.0773,0.736886 4.146677,54.01371 4.146677,54.286727 0,0.231939 1.612697,0.245762 28.433727,0.245762 l 28.433758,1.3e-4 z"
       style="fill:#778990;fill-opacity:1;stroke-width:0.122594" />
    <path
       id="path1211"
       d="m 95.129112,135.1776 c -6.129306,-0.95063 -10.848561,-7.61319 -12.287147,-17.34683 -0.308188,-2.08547 -0.339821,-6.25663 -0.06232,-8.22596 1.020434,-7.24129 4.393777,-12.237457 9.490686,-14.056366 1.487727,-0.530957 2.399856,-0.6902 3.946402,-0.689026 2.22766,0.0011 4.039317,0.603253 5.924467,1.967289 1.39704,1.010844 2.34434,2.014249 3.55992,3.770683 2.15079,3.10778 3.50289,6.76213 4.2111,11.38118 0.30567,1.99416 0.32746,6.34083 0.041,8.23727 -1.18612,7.85681 -5.12293,13.05197 -11.115572,14.66855 -0.882809,0.23798 -2.98967,0.40475 -3.708711,0.29343 z m 3.516758,-9.0653 c 4.29838,-1.84014 6.42985,-7.39634 5.33956,-13.919 -0.72269,-4.32329 -2.94319,-7.74335 -5.697016,-8.77467 -0.963713,-0.36103 -2.799309,-0.32047 -3.884389,0.0857 -0.455768,0.17043 -1.310112,0.65167 -1.89855,1.06913 -1.379644,0.9788 -2.438912,2.43204 -3.094472,4.24544 -1.646644,4.55487 -1.060428,10.53399 1.412686,14.40884 1.006684,1.57729 2.098496,2.52674 3.580336,3.11358 1.061619,0.42053 2.964899,0.31776 4.241845,-0.22897 z"
       style="fill:#778990;fill-opacity:1;stroke-width:0.124262" />
    <path
       id="path1213"
       d="m 49.211238,134.72706 c -2.192524,-0.33746 -4.640601,-1.69188 -6.423951,-3.55429 -2.874422,-3.00193 -5.013223,-7.80062 -5.824412,-13.06789 -0.278675,-1.80959 -0.383951,-5.19304 -0.216602,-6.96208 0.270984,-2.86446 1.147137,-6.05967 2.252012,-8.21285 2.501672,-4.875249 7.149201,-7.978724 11.959738,-7.986269 1.741504,-0.0028 2.858235,0.244254 4.321589,0.955572 5.210318,2.532911 8.956993,9.592147 9.563679,18.019137 0.324962,4.51394 -0.484621,9.10022 -2.232698,12.64821 -0.665528,1.3508 -2.08512,3.32183 -3.130997,4.34718 -2.820107,2.76491 -6.998318,4.31655 -10.268368,3.81328 z m 3.502914,-8.68272 c 2.985895,-1.04401 4.977681,-3.57016 5.875033,-7.45133 0.333731,-1.44339 0.413455,-4.37396 0.164975,-6.06421 -0.663062,-4.51036 -2.855637,-7.95083 -5.729382,-8.99029 -0.950129,-0.34362 -2.749663,-0.31404 -3.90045,0.0645 -4.111939,1.35217 -6.481724,5.6691 -6.298842,11.47435 0.168275,5.34154 2.547181,9.85327 5.817993,11.0341 1.166548,0.42139 2.748547,0.39489 4.070683,-0.0671 z"
       style="fill:#778990;fill-opacity:1;stroke-width:0.124431" />
  </g>
</svg>
