<?xml version="1.0" encoding="UTF-8" standalone="no"?>
<svg
   xmlns:dc="http://purl.org/dc/elements/1.1/"
   xmlns:cc="http://creativecommons.org/ns#"
   xmlns:rdf="http://www.w3.org/1999/02/22-rdf-syntax-ns#"
   xmlns:svg="http://www.w3.org/2000/svg"
   xmlns="http://www.w3.org/2000/svg"
   xmlns:sodipodi="http://sodipodi.sourceforge.net/DTD/sodipodi-0.dtd"
   xmlns:inkscape="http://www.inkscape.org/namespaces/inkscape"
   sodipodi:docname="wordpress.svg"
   inkscape:version="1.0 (6e3e5246a0, 2020-05-07)"
   id="svg1181"
   version="1.1"
   viewBox="0 0 135.46666 135.46667"
   height="512"
   width="512">
  <defs
     id="defs1175" />
  <sodipodi:namedview
     inkscape:window-maximized="1"
     inkscape:window-y="0"
     inkscape:window-x="1366"
     inkscape:window-height="737"
     inkscape:window-width="1366"
     units="px"
     showgrid="false"
     inkscape:document-rotation="0"
     inkscape:current-layer="layer1"
     inkscape:document-units="mm"
     inkscape:cy="176.59628"
     inkscape:cx="136.75753"
     inkscape:zoom="5.6568543"
     inkscape:pageshadow="2"
     inkscape:pageopacity="0.0"
     borderopacity="1.0"
     bordercolor="#666666"
     pagecolor="#ffffff"
     id="base" />
  <metadata
     id="metadata1178">
    <rdf:RDF>
      <cc:Work
         rdf:about="">
        <dc:format>image/svg+xml</dc:format>
        <dc:type
           rdf:resource="http://purl.org/dc/dcmitype/StillImage" />
        <dc:title></dc:title>
      </cc:Work>
    </rdf:RDF>
  </metadata>
  <g
     id="layer1"
     inkscape:groupmode="layer"
     inkscape:label="Capa 1">
    <path
       id="path1319"
       d="M 64.900996,134.56715 C 61.196155,134.35841 54.943184,133.40256 50.84137,132.41792 35.081353,128.63477 21.898201,119.37201 13.147453,105.9334 7.4860199,97.239069 4.0870861,87.520164 2.8063033,76.363925 2.5542741,74.168629 2.5549329,65.366723 2.807294,63.152033 4.2134098,50.812048 8.3491722,40.343434 15.483294,31.06601 c 0.679997,-0.884287 1.560783,-1.969551 1.957301,-2.411695 l 0.720942,-0.803898 h 3.151427 3.151425 l -1.247787,1.223324 c -2.756909,2.702856 -4.542561,5.240885 -5.620432,7.988569 l -0.350424,0.893292 1.572621,-0.0964 c 0.86494,-0.05302 3.342822,-0.296117 5.506401,-0.540208 3.404921,-0.384135 4.423464,-0.444281 7.576172,-0.447365 3.379777,-0.0033 3.726288,0.01974 4.806023,0.319659 1.37271,0.381293 2.026713,0.815364 2.262817,1.501854 0.254293,0.739385 0.06657,1.394046 -0.576787,2.011401 -0.976589,0.937125 -2.518949,1.326329 -6.006863,1.515783 l -1.845937,0.10026 10.946434,32.197303 C 52.225268,106.104 52.439782,106.7144 52.787183,106.67381 c 0.328637,-0.0384 0.452989,-0.33316 1.727921,-4.09581 3.783878,-11.167225 8.440094,-24.478676 9.207803,-26.323789 1.641461,-3.945088 2.343653,-6.387001 2.343653,-8.150197 0,-2.009337 -2.015806,-9.544913 -3.886543,-14.528856 -2.067403,-5.507894 -4.465927,-9.865763 -5.829518,-10.591634 -0.326203,-0.173647 -1.718226,-0.565164 -3.093386,-0.870045 -1.375159,-0.304876 -2.809081,-0.701868 -3.186494,-0.882198 -1.541629,-0.736609 -1.79462,-2.343061 -0.520463,-3.304816 0.938919,-0.708708 1.19918,-0.722988 10.549985,-0.57886 6.144637,0.09471 10.249527,0.08705 14.125373,-0.02637 8.935532,-0.261461 9.021694,-0.25293 10.258508,1.015895 0.796741,0.817362 0.843279,1.196422 0.229277,1.867472 -0.773993,0.84591 -3.214657,1.555583 -6.593224,1.917117 l -1.569022,0.167895 0.09082,0.504812 c 1.248889,6.941643 2.991877,12.526381 7.269894,23.293575 5.114335,12.872104 5.73466,14.613667 7.9428,22.299437 1.828039,6.362782 3.097088,10.179324 4.207164,12.652662 0.887007,1.97631 2.214999,4.41619 2.422111,4.45004 0.234287,0.0384 1.703518,-2.9134 2.304598,-4.63 0.30392,-0.867919 1.13776,-3.784306 1.85299,-6.480856 0.71525,-2.696552 1.88592,-6.736424 2.60151,-8.977494 1.72745,-5.410003 2.09433,-6.63783 2.70051,-9.037874 1.36385,-5.39993 1.67748,-9.733151 1.01697,-14.050742 -0.6359,-4.156645 -1.59501,-6.399837 -5.23053,-12.233233 -3.38395,-5.429777 -4.502443,-7.865273 -4.976011,-10.83515 -0.702974,-4.40861 1.176847,-8.669047 4.808671,-10.898426 l 0.80796,-0.495956 h 6.69233 6.69232 l 1.27428,1.572844 c 5.68889,7.021781 9.94443,15.559264 12.3589,24.79444 2.13285,8.158038 2.68264,17.281652 1.53959,25.549017 -2.80256,20.26971 -14.44579,36.94696 -32.6143,46.71529 -7.933236,4.26532 -18.276907,7.24336 -27.909311,8.03538 -1.606509,0.13209 -5.574961,0.15841 -7.503324,0.0498 z m 6.119215,-4.93832 c 2.353954,-0.196 4.955148,-0.51605 7.489349,-0.92148 3.512908,-0.562 9.702733,-1.81971 9.702733,-1.9715 0,-0.0406 -1.643886,-4.64341 -3.653079,-10.22844 C 81.699612,108.55848 70.259817,78.210299 69.348013,76.154212 l -0.186001,-0.419425 -0.158197,0.379893 c -1.156163,2.776405 -8.423708,22.851062 -12.779995,35.30134 l -5.587209,15.96824 1.620835,0.5028 c 2.64662,0.82102 5.589125,1.40903 8.63692,1.72591 1.650845,0.17164 8.132947,0.18179 10.125845,0.0159 z m -30.013295,-6.27724 c 0,-0.47668 -11.354837,-31.223048 -19.185801,-51.950862 -5.171037,-13.68724 -9.450712,-24.971566 -9.51039,-25.07628 -0.159945,-0.280648 -0.594668,0.366759 -1.601791,2.385455 -2.1785381,4.366706 -3.2842275,9.389612 -3.6515291,16.588113 -0.5787859,11.343241 2.0561516,23.683292 7.2736761,34.064388 4.400214,8.754916 10.067616,15.324666 17.095093,19.816896 1.854349,1.18537 5.631732,3.00359 7.759546,3.73501 1.768806,0.60801 1.821196,0.6206 1.821196,0.43728 z m 60.107744,-3.00471 c 6.03667,-2.86683 11.87335,-8.27369 17.21944,-15.95138 5.66349,-8.133495 9.35087,-17.923283 10.61093,-28.171383 0.31552,-2.566167 0.43793,-8.97269 0.21973,-11.500389 -0.62593,-7.250834 -2.34912,-13.463946 -5.39919,-19.467168 -0.70322,-1.384102 -1.37511,-2.636224 -1.49308,-2.782491 -0.27093,-0.335926 -0.1208,-1.344498 -1.57955,10.611761 l -1.19402,9.786586 -10.25258,29.142465 c -5.63892,16.028349 -10.252568,29.161599 -10.252568,29.184999 0,0.12476 0.405124,-0.0381 2.120888,-0.853 z"
       style="fill:#778990;fill-opacity:1;stroke-width:0.142722" />
    <path
       id="path1321"
       d="m 19.197116,26.581615 c 1.430367,-1.768345 4.810253,-5.419202 6.367338,-6.87782 9.958785,-9.329001 21.969699,-14.9112601 36.557832,-16.9908198 2.581981,-0.3680655 8.238075,-0.3678452 11.287776,4.55e-4 4.163431,0.502779 8.08608,1.2586367 11.520923,2.2199722 C 96.937637,8.2937953 107.79639,15.52971 115.79679,25.501358 l 1.81205,2.258524 -3.23787,0.04374 c -1.78085,0.02406 -4.69619,0.02406 -6.47858,0 l -3.24068,-0.04374 1.23691,-0.456715 c 0.68031,-0.251195 1.65029,-0.49979 2.15556,-0.552436 1.05019,-0.109433 1.04535,-0.07572 0.21407,-1.482047 -0.80727,-1.365669 -2.83219,-3.642836 -4.44739,-5.001394 C 98.399693,15.715907 87.806469,10.887654 79.454484,9.1659729 71.859192,7.6002754 63.85439,7.6801153 56.150688,9.398407 44.935892,11.899839 35.113741,17.426912 25.981562,26.375032 l -1.496266,1.466109 h -3.153482 -3.153483 z"
       style="fill:#778990;fill-opacity:1;stroke-width:0.153853" />
  </g>
</svg>
